<?xml version="1.0" encoding="UTF-8"?>
<svg width="600px" height="600px" viewBox="0 0 600 600" version="1.1" xmlns="http://www.w3.org/2000/svg" xmlns:xlink="http://www.w3.org/1999/xlink">
    <!-- Generator: Sketch 46.2 (44496) - http://www.bohemiancoding.com/sketch -->
    <title>RIFSBERJASULTA</title>
    <desc>Created with Sketch.</desc>
    <defs></defs>
    <g id="Page-1" stroke="none" stroke-width="1" fill="none" fill-rule="evenodd">
        <g id="RIFSBERJASULTA">
            <g id="Group-2" transform="translate(-121.000000, -142.000000)">
                <circle id="Oval-2" stroke="#CA630E" stroke-width="5" fill="#FDF5E6" cx="421.5" cy="442.5" r="265.5"></circle>
                <text id="SULTA" font-family="Limelight-Regular, Limelight" font-size="144" font-weight="normal" fill="#4A4A4A">
                    <tspan x="194.566406" y="486">SULTA</tspan>
                </text>
                <text id="RIFSBERJA-Copy" font-family="Limelight-Regular, Limelight" font-size="64" font-weight="normal" fill="#F0532D">
                    <tspan x="243.796875" y="335">RIFSBERJA</tspan>
                </text>
                <g id="Rifsber" transform="translate(247.000000, 494.000000)">
                    <path d="M22.0009584,143.383784 C10.4260665,138.92348 3.42574705,127.27411 1,108.435673 C5.42808297,108.159751 10.4167415,108.159751 15.9659756,108.435673 C21.5152097,108.711594 25.8382038,109.556161 28.9349579,110.969374 C26.5613166,107.771579 24.2499835,102.553641 22.0009584,95.3155622 C19.7519334,88.0774831 19.7519334,78.071034 22.0009584,65.2962149 C34.8625414,65.6949275 44.9247008,69.0352415 52.1874367,75.3171568 C59.4501726,81.5990722 63.1356346,85.9771604 63.2438225,88.4514216 C62.6960697,84.14722 63.9379628,79.1662942 66.9695016,73.5086444 C70.0010405,67.8509945 74.4766557,63.0147797 80.3963474,59 C94.9558934,77.0410549 98.6287599,97.4500704 91.414947,120.227047 C88.67627,128.874177 82.3419063,133.320006 72.4118557,133.564534 C64.6290338,150.06197 47.8254014,153.335053 22.0009584,143.383784 Z" id="Path-18-Copy-2" fill="#368579" transform="translate(48.000000, 104.000000) rotate(-93.000000) translate(-48.000000, -104.000000) "></path>
                    <path d="M148.000958,155.383784 C136.426067,150.92348 129.425747,139.27411 127,120.435673 C131.428083,120.159751 136.416742,120.159751 141.965976,120.435673 C147.51521,120.711594 151.838204,121.556161 154.934958,122.969374 C152.561317,119.771579 150.249983,114.553641 148.000958,107.315562 C145.751933,100.077483 145.751933,90.071034 148.000958,77.2962149 C160.862541,77.6949275 170.924701,81.0352415 178.187437,87.3171568 C185.450173,93.5990722 189.135635,97.9771604 189.243822,100.451422 C188.69607,96.14722 189.937963,91.1662942 192.969502,85.5086444 C196.00104,79.8509945 200.476656,75.0147797 206.396347,71 C220.955893,89.0410549 224.62876,109.45007 217.414947,132.227047 C214.67627,140.874177 208.341906,145.320006 198.411856,145.564534 C190.629034,162.06197 173.825401,165.335053 148.000958,155.383784 Z" id="Path-18-Copy-3" fill="#368579" transform="translate(174.000000, 116.000000) rotate(-155.000000) translate(-174.000000, -116.000000) "></path>
                    <path d="M257.000958,108.383784 C245.426067,103.92348 238.425747,92.2741099 236,73.4356726 C240.428083,73.1597514 245.416742,73.1597514 250.965976,73.4356726 C256.51521,73.7115938 260.838204,74.556161 263.934958,75.9693743 C261.561317,72.7715787 259.249983,67.5536414 257.000958,60.3155622 C254.751933,53.0774831 254.751933,43.071034 257.000958,30.2962149 C269.862541,30.6949275 279.924701,34.0352415 287.187437,40.3171568 C294.450173,46.5990722 298.135635,50.9771604 298.243822,53.4514216 C297.69607,49.14722 298.937963,44.1662942 301.969502,38.5086444 C305.00104,32.8509945 309.476656,28.0147797 315.396347,24 C329.955893,42.0410549 333.62876,62.4500704 326.414947,85.2270466 C323.67627,93.874177 317.341906,98.3200062 307.411856,98.5645343 C299.629034,115.06197 282.825401,118.335053 257.000958,108.383784 Z" id="Path-18-Copy-4" fill="#368579" transform="translate(283.000000, 69.000000) rotate(-27.000000) translate(-283.000000, -69.000000) "></path>
                    <path d="M76.0009584,101.383784 C64.4260665,96.9234805 57.4257471,85.2741099 55,66.4356726 C59.428083,66.1597514 64.4167415,66.1597514 69.9659756,66.4356726 C75.5152097,66.7115938 79.8382038,67.556161 82.9349579,68.9693743 C80.5613166,65.7715787 78.2499835,60.5536414 76.0009584,53.3155622 C73.7519334,46.0774831 73.7519334,36.071034 76.0009584,23.2962149 C88.8625414,23.6949275 98.9247008,27.0352415 106.187437,33.3171568 C113.450173,39.5990722 117.135635,43.9771604 117.243822,46.4514216 C116.69607,42.14722 117.937963,37.1662942 120.969502,31.5086444 C124.00104,25.8509945 128.476656,21.0147797 134.396347,17 C148.955893,35.0410549 152.62876,55.4500704 145.414947,78.2270466 C142.67627,86.874177 136.341906,91.3200062 126.411856,91.5645343 C118.629034,108.06197 101.825401,111.335053 76.0009584,101.383784 Z" id="Path-18-Copy-6" fill="#368579" transform="translate(102.000000, 62.000000) rotate(-27.000000) translate(-102.000000, -62.000000) "></path>
                    <path d="M327,74.6803566 C314.161253,70.9675475 305.82792,73.4074286 302,82" id="Path-12" stroke="#97D454" stroke-width="2"></path>
                    <path d="M136,75 C132.32707,92.2392175 126.993737,103.239217 120,108" id="Path-14" stroke="#97D454" stroke-width="2"></path>
                    <path d="M123,73 C108.66563,63.9521746 96.3322969,61.044085 86,64.2757313" id="Path-13" stroke="#97D454" stroke-width="2"></path>
                    <path d="M256,76 C266.764566,80.1214968 273.764566,90.4548301 277,107" id="Path-15" stroke="#97D454" stroke-width="2"></path>
                    <path d="M349,52 C317.990634,90.8968853 285.275822,111.192689 250.855565,112.88741 C199.225179,115.429492 187.416755,74.0817515 123.755304,74.0817515 C81.3143362,74.0817515 50.7292349,87.016971 32,112.88741" id="Path-11" stroke="#94C95A" stroke-width="5"></path>
                    <g id="Group" transform="translate(30.000000, 127.500000) rotate(14.000000) translate(-30.000000, -127.500000) translate(6.000000, 104.000000)">
                        <ellipse id="Oval-3" fill-opacity="0.873952672" fill="#CC1D01" cx="24" cy="23.5" rx="24" ry="23.5"></ellipse>
                        <ellipse id="Oval" fill="#67492F" cx="24" cy="36.6057692" rx="4.61538462" ry="3.16346154"></ellipse>
                    </g>
                    <g id="Group-Copy" transform="translate(88.000000, 81.000000) rotate(-27.000000) translate(-88.000000, -81.000000) translate(66.000000, 59.000000)">
                        <circle id="Oval-3" fill-opacity="0.873952672" fill="#CC1D01" cx="21.7576378" cy="21.7576378" r="21.7576378"></circle>
                        <ellipse id="Oval" fill="#67492F" cx="21.7576378" cy="33.6254402" rx="4.35152756" ry="2.7691539"></ellipse>
                    </g>
                    <g id="Group-Copy-4" transform="translate(168.000000, 76.000000) rotate(45.000000) translate(-168.000000, -76.000000) translate(143.000000, 51.000000)">
                        <circle id="Oval-3" fill-opacity="0.873952672" fill="#CC1D01" cx="25" cy="25" r="25"></circle>
                        <ellipse id="Oval" fill="#67492F" cx="25" cy="38.6363636" rx="5" ry="3.18181818"></ellipse>
                    </g>
                    <g id="Group-Copy-5" transform="translate(119.000000, 126.000000) rotate(-4.000000) translate(-119.000000, -126.000000) translate(94.000000, 101.000000)">
                        <circle id="Oval-3" fill-opacity="0.873952672" fill="#CC1D01" cx="25" cy="25" r="25"></circle>
                        <ellipse id="Oval" fill="#67492F" cx="25" cy="38.6363636" rx="5" ry="3.18181818"></ellipse>
                    </g>
                    <g id="Group-Copy-2" transform="translate(305.000000, 99.000000) rotate(-22.000000) translate(-305.000000, -99.000000) translate(280.000000, 74.000000)">
                        <circle id="Oval-3" fill-opacity="0.873952672" fill="#CC1D01" cx="25" cy="25" r="25"></circle>
                        <ellipse id="Oval" fill="#67492F" cx="25" cy="38.6363636" rx="5" ry="3.18181818"></ellipse>
                    </g>
                    <g id="Group-Copy-6" transform="translate(247.500000, 84.500000) rotate(31.000000) translate(-247.500000, -84.500000) translate(227.000000, 64.000000)">
                        <circle id="Oval-3" fill-opacity="0.873952672" fill="#CC1D01" cx="20.5" cy="20.5" r="20.5"></circle>
                        <ellipse id="Oval" fill="#67492F" cx="20.5" cy="31.8888889" rx="4.1" ry="2.73333333"></ellipse>
                    </g>
                    <path d="M228.000958,185.383784 C216.426067,180.92348 209.425747,169.27411 207,150.435673 C211.428083,150.159751 216.416742,150.159751 221.965976,150.435673 C227.51521,150.711594 231.838204,151.556161 234.934958,152.969374 C232.561317,149.771579 230.249983,144.553641 228.000958,137.315562 C225.751933,130.077483 225.751933,120.071034 228.000958,107.296215 C240.862541,107.694928 250.924701,111.035241 258.187437,117.317157 C265.450173,123.599072 269.135635,127.97716 269.243822,130.451422 C268.69607,126.14722 269.937963,121.166294 272.969502,115.508644 C276.00104,109.850995 280.476656,105.01478 286.396347,101 C300.955893,119.041055 304.62876,139.45007 297.414947,162.227047 C294.67627,170.874177 288.341906,175.320006 278.411856,175.564534 C270.629034,192.06197 253.825401,195.335053 228.000958,185.383784 Z" id="Path-18-Copy-5" fill="#368579" transform="translate(254.000000, 146.000000) rotate(-142.000000) translate(-254.000000, -146.000000) "></path>
                    <g id="Group-Copy-3" transform="translate(198.000000, 99.000000)">
                        <circle id="Oval-3" fill-opacity="0.873952672" fill="#CC1D01" cx="20.5" cy="20.5" r="20.5"></circle>
                        <ellipse id="Oval" fill="#67492F" cx="20.5" cy="31.8888889" rx="4.1" ry="2.73333333"></ellipse>
                    </g>
                </g>
            </g>
        </g>
    </g>
</svg>